<?xml version="1.0" encoding="UTF-8" standalone="no"?>
<svg
   version="1.0"
   width="200.000000pt"
   height="200.000000pt"
   viewBox="0 0 200.000000 200.000000"
   preserveAspectRatio="xMidYMid meet"
   id="svg8"
   sodipodi:docname="Preview.svg"
   inkscape:version="1.1.2 (0a00cf5339, 2022-02-04)"
   xmlns:inkscape="http://www.inkscape.org/namespaces/inkscape"
   xmlns:sodipodi="http://sodipodi.sourceforge.net/DTD/sodipodi-0.dtd"
   xmlns="http://www.w3.org/2000/svg"
   xmlns:svg="http://www.w3.org/2000/svg">
  <defs
     id="defs12" />
  <sodipodi:namedview
     id="namedview10"
     pagecolor="#ffffff"
     bordercolor="#666666"
     borderopacity="1.0"
     inkscape:pageshadow="2"
     inkscape:pageopacity="0.0"
     inkscape:pagecheckerboard="0"
     inkscape:document-units="pt"
     showgrid="false"
     inkscape:zoom="0.79814678"
     inkscape:cx="103.36445"
     inkscape:cy="134.06055"
     inkscape:window-width="1600"
     inkscape:window-height="777"
     inkscape:window-x="0"
     inkscape:window-y="0"
     inkscape:window-maximized="1"
     inkscape:current-layer="svg8" />
  <metadata
     id="metadata2">
Created by potrace 1.16, written by Peter Selinger 2001-2019
</metadata>
  <circle
     style="fill:#0a192f;fill-opacity:1;stroke-width:0.719989"
     id="path1708"
     cx="100"
     cy="100"
     r="100"
     inkscape:export-filename="/home/lavanya/portfolioyt/public/assets/images/logo.png"
     inkscape:export-xdpi="96"
     inkscape:export-ydpi="96" />
  <path
     d="m 93.619158,163.50628 v -8.68068 l 3.60509,-0.40959 c 15.472622,-1.7579 27.892762,-12.41017 31.985182,-27.43248 0.87341,-3.20609 1.0119,-6.51651 1.02376,-24.47296 l 0.0137,-20.76534 H 112.07722 93.907548 v -8.652224 -8.652224 l 27.001992,-0.149933 27.00198,-0.149934 -0.20832,31.297944 c -0.20086,30.177711 -0.25396,31.463101 -1.48378,35.912461 -1.43073,5.17626 -4.88669,12.7578 -7.69331,16.87727 -9.18092,13.47546 -24.30097,22.37447 -40.076052,23.58705 l -4.83092,0.37133 z M 52.088482,77.419118 V 27.813033 h 8.652224 8.652224 v 40.665454 40.665453 h 19.900116 19.900114 v 8.94063 8.94063 H 80.640822 52.088482 Z"
     style="fill:#64ffda;fill-opacity:1;stroke-width:0.432611"
     id="path367"
     inkscape:export-filename="/home/lavanya/portfolioyt/public/assets/images/logo.png"
     inkscape:export-xdpi="96"
     inkscape:export-ydpi="96" />
</svg>
